<?xml version="1.0" encoding="utf-8"?>
<!-- Generator: Adobe Illustrator 25.0.1, SVG Export Plug-In . SVG Version: 6.00 Build 0)  -->
<svg version="1.1" id="Calque_1" xmlns="http://www.w3.org/2000/svg" xmlns:xlink="http://www.w3.org/1999/xlink" x="0px" y="0px"
	 viewBox="0 0 75 64" style="enable-background:new 0 0 75 64;" xml:space="preserve">
<style type="text/css">
	.st0{fill:#8C6A48;}
</style>
<path class="st0" d="M74.17,32.3c0-6.88-6.5-8.69-6.5-8.69c2.83-3.23,2.03-6.06,2.03-6.06c-1.12-6.07-6.41-6.88-11.93-6.88
	c-5.52,0-10.35,4.66-11.04,5.27c-0.24,0.23-0.65,0.57-0.95,0.8l-0.12-0.07l-6.01-4.57c1.37-0.63,3.06-1.41,3.48-1.61
	c0.76-0.38,5.55-2.95,3.7-6.06c0,0-1.28-3.34-9.36-3.43c-8.06,0.09-9.34,3.43-9.34,3.43c-1.84,3.11,2.94,5.68,3.7,6.06
	c0.43,0.2,2.11,0.98,3.49,1.61l-6.01,4.57l-0.07,0.06c-0.29-0.23-0.68-0.56-0.92-0.79c-0.69-0.61-5.75-5.1-11.26-5.18
	C11.1,10.68,6.32,12.3,5.33,17.55c0,0-0.8,2.83,2.04,6.06c0,0-6.54,1.71-6.54,8.6c0,6.9,6.54,8.45,6.54,8.45s-2.58,2.01-2.13,5.97
	c0,0,0.83,7.25,11.89,6.67c0,0,5.23,0.09,12.08-6.07l6.14,4.66c-1.37,0.63-3.06,1.41-3.48,1.61c-0.76,0.38-5.55,2.95-3.7,6.06
	c0,0,1.28,3.34,9.36,3.43c8.06-0.09,9.34-3.43,9.34-3.43c1.84-3.11-2.94-5.68-3.7-6.06c-0.43-0.2-2.11-0.98-3.49-1.61l6.14-4.66
	c6.54,5.89,12.49,6.16,12.49,6.16c10.36,0.36,11.32-6.69,11.32-6.69c0.75-3.95-1.96-6.04-1.96-6.04S74.17,39.2,74.17,32.3z
	 M48.84,18.9c0.5-0.49,4.99-4.69,9.4-5.2c0,0,7.24-0.52,7.24,4.63c0,5.16-7.21,4.86-7.21,4.86s-3.1-0.08-6.42-2.06
	c-0.12-0.07-0.26-0.14-0.39-0.21c0,0,0-0.01-0.02-0.01c-0.12-0.07-0.24-0.14-0.37-0.21c-0.01-0.01-0.03-0.01-0.04-0.02
	c-0.11-0.07-0.23-0.15-0.34-0.22c-0.02-0.02-0.02-0.03-0.04-0.03c-0.12-0.09-0.23-0.15-0.33-0.23c-0.03-0.01-0.05-0.03-0.07-0.05
	c-0.11-0.07-0.2-0.15-0.3-0.22c-0.04-0.02-0.05-0.05-0.09-0.05c-0.09-0.08-0.19-0.16-0.27-0.22c-0.04-0.03-0.06-0.06-0.09-0.08
	c-0.1-0.08-0.18-0.15-0.27-0.23c-0.02-0.04-0.06-0.05-0.1-0.08c-0.12-0.12-0.23-0.22-0.34-0.32C48.79,18.95,48.81,18.92,48.84,18.9z
	 M45.86,20.58c2.28,2.65,5.77,4.59,7.13,5.29l0.06,0.04l-5.65,4.2l-7.16-5.33L45.86,20.58z M44.81,32.02l-7.27,5.4h-0.01l-7.29-5.4
	l7.28-5.41L44.81,32.02z M34.31,9.17c-0.44-0.21-3.13-1.82-2.1-3.75c0,0,0.74-2.06,5.26-2.13c4.54,0.08,5.27,2.13,5.27,2.13
	c1.04,1.93-1.65,3.54-2.08,3.75c-0.43,0.24-2.96,1.56-2.96,1.56l-0.22,0.09l-0.21-0.09C37.27,10.74,34.73,9.41,34.31,9.17z
	 M43.29,18.62l-5.8,4.28l-5.76-4.28l2.6-1.94l3.18-2.38l3.18,2.38L43.29,18.62z M34.33,16.68 M29.18,20.58l5.61,4.19l-7.14,5.33
	l-5.64-4.2l0.05-0.04C23.4,25.17,26.91,23.23,29.18,20.58z M16.81,13.7c4.42,0.5,8.89,4.7,9.4,5.2c0.04,0.03,0.05,0.05,0.05,0.05
	c-0.11,0.1-0.23,0.21-0.34,0.32c-0.02,0.03-0.08,0.04-0.1,0.08c-0.09,0.08-0.18,0.16-0.27,0.23c-0.04,0.02-0.06,0.05-0.11,0.08
	c-0.08,0.06-0.16,0.14-0.25,0.22c-0.03,0-0.06,0.03-0.09,0.05c-0.09,0.08-0.19,0.15-0.3,0.22c-0.02,0.02-0.03,0.03-0.06,0.05
	c-0.11,0.08-0.22,0.14-0.32,0.23c-0.02,0-0.04,0.01-0.05,0.03c-0.12,0.07-0.23,0.14-0.35,0.22c-0.01,0.01-0.02,0.01-0.04,0.02
	c-0.12,0.07-0.24,0.14-0.35,0.21l-0.02,0.01c-0.14,0.07-0.26,0.15-0.38,0.21c-3.83,1.98-6.44,2.06-6.44,2.06s-7.2,0.3-7.2-4.86
	C9.57,13.18,16.81,13.7,16.81,13.7z M4.3,32.09c0-6.23,8.81-5.96,8.81-5.96c5.7,0.64,11.56,5.82,11.56,5.82
	c-0.4,0.43-0.89,0.96-1.31,1.32c-0.14,0.12-0.28,0.25-0.44,0.36c0,0,0,0.01-0.02,0.01c-0.14,0.12-0.28,0.23-0.44,0.33
	c0,0.01,0,0.02-0.01,0.02c-0.14,0.1-0.29,0.21-0.44,0.31c-0.16,0.11-0.31,0.21-0.46,0.31c-4.6,3.1-8.49,3.18-8.49,3.18
	S4.3,38.34,4.3,32.09z M16.81,50.36c0,0-7.24,0.53-7.24-4.63c0-5.15,7.2-4.85,7.2-4.85s5.92,1.01,9.48,4.26
	C26.25,45.14,21.5,49.83,16.81,50.36z M21.97,38.18l5.68-4.23l7.29,5.41l-5.69,4.25C28.61,42.92,25.97,39.87,21.97,38.18z
	 M40.69,54.83c0.44,0.21,3.13,1.82,2.1,3.75c0,0-0.74,2.06-5.26,2.13c-4.54-0.08-5.27-2.13-5.27-2.13
	c-1.04-1.93,1.65-3.54,2.08-3.75c0.43-0.24,2.96-1.56,2.96-1.56l0.22-0.09l0.21,0.09C37.74,53.26,40.27,54.59,40.69,54.83z
	 M37.52,49.9l-5.71-4.33l5.72-4.28l5.7,4.28L37.52,49.9z M45.79,43.62l-5.68-4.25l7.28-5.41l6.63,4.9
	C48.9,40.52,46.42,42.92,45.79,43.62z M58.24,50.36c-4.68-0.53-9.45-5.22-9.45-5.22c3.57-3.25,9.47-4.26,9.47-4.26
	s7.21-0.3,7.21,4.85C65.47,50.89,58.24,50.36,58.24,50.36z M61.97,37.9c0,0-3.75-0.11-8.48-3.3c-0.14-0.1-0.3-0.19-0.45-0.31
	c0,0,0,0-0.02,0c-0.15-0.1-0.29-0.21-0.44-0.31c-0.01,0-0.01-0.01-0.01-0.02c-0.16-0.1-0.3-0.22-0.44-0.33l0-0.01
	c-0.15-0.12-0.28-0.24-0.44-0.36c-0.42-0.36-0.85-0.9-1.24-1.32c0,0,5.81-5.17,11.49-5.82c0,0,8.8-0.26,8.8,5.96
	C70.73,38.34,61.97,37.9,61.97,37.9z"/>
</svg>
